<svg width="32" height="32" viewBox="0 0 32 32" fill="none" xmlns="http://www.w3.org/2000/svg">
<rect width="32" height="32" rx="16" fill="#9A424E"/>
<path d="M23.81 18.9425L22.16 17.2833V13.195C22.1819 11.6768 21.6539 10.202 20.6733 9.04281C19.6927 7.88362 18.3258 7.11836 16.825 6.88834C15.954 6.77363 15.0685 6.846 14.2277 7.10062C13.3869 7.35523 12.61 7.78623 11.949 8.36487C11.2879 8.94351 10.7579 9.65647 10.3942 10.4562C10.0305 11.2559 9.84159 12.124 9.83999 13.0025V17.2833L8.18999 18.9425C7.98273 19.1532 7.84219 19.4203 7.78592 19.7105C7.72965 20.0006 7.76016 20.3009 7.87362 20.5738C7.98709 20.8467 8.17848 21.0802 8.42387 21.2449C8.66927 21.4096 8.95777 21.4983 9.25332 21.5H12.3333V21.8117C12.3761 22.7423 12.7861 23.618 13.4734 24.2468C14.1607 24.8757 15.0693 25.2065 16 25.1667C16.9307 25.2065 17.8393 24.8757 18.5266 24.2468C19.2139 23.618 19.6238 22.7423 19.6667 21.8117V21.5H22.7467C23.0422 21.4983 23.3307 21.4096 23.5761 21.2449C23.8215 21.0802 24.0129 20.8467 24.1263 20.5738C24.2398 20.3009 24.2703 20.0006 24.2141 19.7105C24.1578 19.4203 24.0172 19.1532 23.81 18.9425ZM17.8333 21.8117C17.7825 22.2526 17.5635 22.6569 17.222 22.9404C16.8804 23.2238 16.4427 23.3646 16 23.3333C15.5573 23.3646 15.1195 23.2238 14.778 22.9404C14.4365 22.6569 14.2175 22.2526 14.1667 21.8117V21.5H17.8333V21.8117ZM10.0508 19.6667L11.1325 18.585C11.3041 18.4145 11.4402 18.2116 11.533 17.9882C11.6258 17.7648 11.6735 17.5253 11.6733 17.2833V13.0025C11.6738 12.3841 11.8066 11.773 12.0627 11.2102C12.3188 10.6473 12.6924 10.1458 13.1583 9.73917C13.618 9.32271 14.1626 9.01111 14.7545 8.82593C15.3465 8.64074 15.9716 8.5864 16.5867 8.66667C17.6468 8.8388 18.609 9.3881 19.2962 10.2134C19.9834 11.0388 20.3494 12.0846 20.3267 13.1583V17.2833C20.3253 17.5246 20.3715 17.7638 20.4627 17.9872C20.554 18.2105 20.6884 18.4137 20.8583 18.585L21.9492 19.6667H10.0508Z" fill="#F5F5F5"/>
</svg>
