<svg width="18" height="24" viewBox="0 0 18 24" fill="none" xmlns="http://www.w3.org/2000/svg">
<path d="M9.5625 0C4.75313 0 0 3.20625 0 8.39531C0 11.6953 1.85625 13.5703 2.98125 13.5703C3.44531 13.5703 3.7125 12.2766 3.7125 11.9109C3.7125 11.475 2.60156 10.5469 2.60156 8.73281C2.60156 4.96406 5.47031 2.29219 9.18281 2.29219C12.375 2.29219 14.7375 4.10625 14.7375 7.43906C14.7375 9.92813 13.7391 14.5969 10.5047 14.5969C9.3375 14.5969 8.33906 13.7531 8.33906 12.5438C8.33906 10.7719 9.57656 9.05625 9.57656 7.22813C9.57656 4.125 5.175 4.6875 5.175 8.4375C5.175 9.225 5.27344 10.0969 5.625 10.8141C4.97812 13.5984 3.65625 17.7469 3.65625 20.6156C3.65625 21.5016 3.78281 22.3734 3.86719 23.2594C4.02656 23.4375 3.94688 23.4188 4.19063 23.3297C6.55313 20.0953 6.46875 19.4625 7.5375 15.2297C8.11406 16.3266 9.60469 16.9172 10.7859 16.9172C15.7641 16.9172 18 12.0656 18 7.69219C18 3.0375 13.9781 0 9.5625 0Z" fill="white"/>
</svg>
