<svg width="32" height="32" viewBox="0 0 32 32" fill="none" xmlns="http://www.w3.org/2000/svg">
<rect width="32" height="32" rx="16" fill="#9A424E"/>
<path d="M16 15C16.7911 15 17.5645 14.7654 18.2223 14.3259C18.8801 13.8864 19.3928 13.2616 19.6955 12.5307C19.9983 11.7998 20.0775 10.9956 19.9231 10.2196C19.7688 9.44372 19.3878 8.73098 18.8284 8.17157C18.269 7.61216 17.5563 7.2312 16.7804 7.07686C16.0044 6.92252 15.2002 7.00173 14.4693 7.30448C13.7384 7.60723 13.1136 8.11992 12.6741 8.77772C12.2346 9.43552 12 10.2089 12 11C12 12.0609 12.4214 13.0783 13.1716 13.8284C13.9217 14.5786 14.9391 15 16 15ZM16 9C16.3956 9 16.7822 9.1173 17.1111 9.33706C17.44 9.55683 17.6964 9.86918 17.8478 10.2346C17.9991 10.6001 18.0387 11.0022 17.9616 11.3902C17.8844 11.7781 17.6939 12.1345 17.4142 12.4142C17.1345 12.6939 16.7781 12.8844 16.3902 12.9616C16.0022 13.0387 15.6001 12.9991 15.2346 12.8478C14.8692 12.6964 14.5568 12.44 14.3371 12.1111C14.1173 11.7822 14 11.3956 14 11C14 10.4696 14.2107 9.96086 14.5858 9.58579C14.9609 9.21072 15.4696 9 16 9Z" fill="#F5F5F5"/>
<path d="M16 17C14.1435 17 12.363 17.7375 11.0503 19.0503C9.7375 20.363 9 22.1435 9 24C9 24.2652 9.10536 24.5196 9.29289 24.7071C9.48043 24.8946 9.73478 25 10 25C10.2652 25 10.5196 24.8946 10.7071 24.7071C10.8946 24.5196 11 24.2652 11 24C11 22.6739 11.5268 21.4021 12.4645 20.4645C13.4021 19.5268 14.6739 19 16 19C17.3261 19 18.5979 19.5268 19.5355 20.4645C20.4732 21.4021 21 22.6739 21 24C21 24.2652 21.1054 24.5196 21.2929 24.7071C21.4804 24.8946 21.7348 25 22 25C22.2652 25 22.5196 24.8946 22.7071 24.7071C22.8946 24.5196 23 24.2652 23 24C23 22.1435 22.2625 20.363 20.9497 19.0503C19.637 17.7375 17.8565 17 16 17Z" fill="#F5F5F5"/>
</svg>
